<?xml version="1.0" encoding="UTF-8"?>
<svg id="_レイヤー_2" data-name="レイヤー 2" xmlns="http://www.w3.org/2000/svg" xmlns:xlink="http://www.w3.org/1999/xlink" viewBox="0 0 1465.77 1472.15">
  <defs>
    <style>
      .cls-1 {
        fill: #9b0015;
      }

      .cls-2 {
        fill: none;
      }

      .cls-3 {
        clip-path: url(#clippath);
      }
    </style>
    <clipPath id="clippath">
      <rect class="cls-2" x="73.78" width="1358.12" height="1432.32"/>
    </clipPath>
  </defs>
  <g id="_ポートフォリオ" data-name="ポートフォリオ">
    <g class="cls-3">
      <g>
        <path class="cls-1" d="M275.09,451.58c.23-6.62,2.31-13.08,5.98-18.6.85-1.28,1.77-2.58,2.85-3.69.6-.62,1.2-1.15,1.98-.52.72.58,1.33,1.42,1.9,2.13,1.99,2.48,3.61,5.23,5.47,7.8.85,1.17,1.75,2.32,2.73,3.38,1.12,1.2,2.59,2,2.8,3.72.47,3.76.55,7.64.65,11.42.05,1.82.08,3.65.08,5.47,0,.79.27,2.3-.34,2.93-.49.51-1.72.55-2.38.67-3.11.54-6.23.55-7.9-2.53-.75-1.39-1.42-2.74-2.56-3.87-1-.99-2.17-1.79-3.35-2.53-2.38-1.5-5.06-2.81-6.43-5.39-.68-1.28-2.62-.14-1.94,1.14,1.42,2.68,4.03,4.22,6.53,5.76,1.31.81,2.64,1.63,3.72,2.73,1.23,1.26,1.73,2.92,2.73,4.34,2.02,2.88,5.52,3.14,8.73,2.7,1.45-.2,3.33-.34,4.45-1.41,1.39-1.34,1-3.78,1-5.51-.02-4.56-.21-9.12-.55-13.67-.13-1.72-.02-3.73-1.19-5.13s-2.62-2.51-3.77-3.94c-2.35-2.92-4.2-6.21-6.5-9.17-.96-1.24-2.19-3.12-3.81-3.54-1.71-.45-3.14.84-4.16,2.04-5.53,6.48-8.67,14.79-8.97,23.29-.05,1.45,2.2,1.45,2.25,0h0Z"/>
        <g>
          <path class="cls-1" d="M1260.77,274.71c-1.26-3.04-2.27-6.18-2.97-9.4-.29-1.3-1.21-3.69-.1-4.75.88-.84,2.21-1.27,3.17-2.06,1.96-1.62,3.31-3.81,4.92-5.74,1.9-2.27,4.23-3.89,7.25-4.14,1.43-.12,1.45-2.37,0-2.25-3.25.27-6.06,1.71-8.25,4.11-1.98,2.17-3.44,4.93-5.85,6.68-1.15.84-2.68,1.28-3.47,2.55s-.47,2.91-.21,4.35c.71,3.86,1.84,7.62,3.34,11.24.55,1.32,2.72.74,2.17-.6h0Z"/>
          <path class="cls-1" d="M1274.28,246.26c-.76,2.38,1.09,4.29,2.67,5.8,1.87,1.78,3.87,3.44,5.96,4.97,4.23,3.09,8.85,5.57,13.73,7.47l-.67-1.65c-2.76,4.49-6.02,8.61-9.75,12.33l1.77,1.36c.19-.44.37-.88.56-1.32.56-1.32-1.38-2.47-1.94-1.14-.19.44-.37.88-.56,1.32-.47,1.1.79,2.34,1.77,1.36,3.86-3.85,7.25-8.14,10.1-12.78.41-.67-.02-1.4-.67-1.65-4.16-1.62-8.12-3.72-11.79-6.25-1.8-1.24-3.52-2.58-5.16-4.02-1.25-1.09-4.44-3.26-3.83-5.2.44-1.38-1.73-1.98-2.17-.6h0Z"/>
          <path class="cls-1" d="M1286.56,276.89c-4.77.57-9.54,1.16-14.32,1.71-3.56.41-9.07.81-10.67-3.36-.52-1.34-2.69-.76-2.17.6,1.66,4.3,6.3,5.5,10.51,5.24,5.56-.35,11.12-1.28,16.65-1.94,1.42-.17,1.44-2.42,0-2.25h0Z"/>
          <path class="cls-1" d="M1266.36,250.06c-11.54-12.66-14.84-30.12-20.08-45.88-3.09-9.3-7.3-18.12-11.48-26.97-4.49-9.51-8.98-19.02-13.47-28.53-4.01-8.49-7.97-17.13-13.68-24.65-5.28-6.95-11.99-12.77-19.67-16.94-4.13-2.24-8.51-3.88-12.95-5.38-4.7-1.58-9.36-3.23-13.95-5.12-8.94-3.68-17.59-8.08-25.84-13.12s-15.72-10.73-25.19-11.99c-4.34-.58-8.81-.13-12.77,1.85-3.66,1.83-6.57,4.82-9.03,8.03-2.74,3.57-5.17,7.44-7.32,11.39s-4.01,8.23-4.99,12.68-.97,8.89.02,13.32c.53,2.37,1.23,4.71,1.57,7.11.36,2.56,0,4.85-.59,7.33-.49,2.04-.74,4.13-.08,6.17.56,1.72,1.59,3.23,2.82,4.53,2.99,3.18,7.01,5.39,10.61,7.78,8.57,5.68,17.25,11.21,25.67,17.1,7.83,5.48,14.74,11.69,20.45,19.39s10.12,15.34,16.01,22.4c10.72,12.85,25.13,21.93,40.18,28.91,7.7,3.57,15.61,6.65,23.58,9.55,8.73,3.18,17.55,6.76,26.75,8.3,4.8.8,9.56,1.56,14.27,2.83,1.4.38,2-1.79.6-2.17-4.71-1.27-9.47-2.03-14.27-2.83s-9.54-2.23-14.2-3.85c-7.93-2.75-15.86-5.56-23.66-8.66-15.25-6.07-30.35-13.49-42.71-24.47-6.5-5.78-11.78-12.5-16.66-19.67s-9.92-15.02-16.37-21.32-14.73-11.71-22.55-16.89c-4.28-2.84-8.56-5.67-12.84-8.51-3.88-2.57-8.08-4.93-11.63-7.95-1.44-1.22-2.81-2.63-3.6-4.37-.95-2.09-.55-4.18-.03-6.32s.83-4.4.59-6.69-.82-4.51-1.36-6.74c-1.11-4.59-1.41-9.05-.38-13.69s2.87-8.72,5.09-12.73,4.48-7.62,7.19-11.05c2.57-3.25,5.71-6.26,9.68-7.69,8.96-3.21,18.25,1.08,25.83,5.7,4,2.44,7.9,5.02,11.95,7.36s8.28,4.58,12.55,6.63c8.63,4.15,17.55,7.32,26.57,10.48,8.45,2.96,16.18,7.39,22.66,13.61s11.31,14.14,15.37,22.26c4.44,8.89,8.55,17.96,12.79,26.95s8.93,18.31,12.81,27.71c6.37,15.42,8.9,32.47,17.34,47.01,1.95,3.35,4.23,6.51,6.84,9.37.98,1.07,2.57-.52,1.59-1.59h0Z"/>
          <path class="cls-1" d="M1263.27,254.85c-9.85-11.77-25.06-16.58-36.56-26.31-5.81-4.92-10.03-11.13-13.07-18.08s-5.01-14.68-7.06-22.14-4.22-14.92-7.64-21.88c-3.88-7.9-9.39-14.88-15.24-21.41-6.31-7.04-12.96-13.79-19.67-20.45s-13.34-13.11-20.4-19.23c-13.38-11.61-29.31-21.83-47.55-22.5-2.22-.08-4.43,0-6.64.23-1.43.15-1.44,2.4,0,2.25,18.4-1.9,35.39,7.37,49.16,18.7,7.07,5.82,13.69,12.2,20.24,18.6s13.51,13.45,20,20.42c5.97,6.41,11.74,13.09,16.13,20.71,3.95,6.87,6.42,14.39,8.56,21.99,4.05,14.32,7.29,29.84,17.93,40.96s25.43,15.53,36.39,25.71c1.36,1.26,2.64,2.61,3.83,4.03.93,1.11,2.51-.49,1.59-1.59h0Z"/>
          <path class="cls-1" d="M1089.01,85.11c.04,13.45,4.34,26.85,12.27,37.73,7.17,9.85,17.03,17.14,26.68,24.38s19.5,14.84,26.11,25.19c1.97,3.09,3.75,6.31,5.89,9.29s4.34,5.51,6.7,8.1c4.93,5.41,9.94,10.78,15.23,15.84,11.11,10.64,24.43,19.9,40.13,21.48,1.44.15,1.43-2.11,0-2.25-13.79-1.39-25.86-9.22-35.88-18.34-5.28-4.81-10.16-10.04-15.04-15.25-2.44-2.61-4.87-5.22-7.11-8s-4.19-5.82-6.06-8.9c-3.17-5.24-6.73-10.06-11.07-14.39s-8.8-7.89-13.49-11.49c-9.38-7.18-19.29-13.93-27.07-22.93-9.64-11.17-15-25.73-15.04-40.46,0-1.45-2.25-1.45-2.25,0h0Z"/>
          <path class="cls-1" d="M1292.28,269.19c4.83,6.78,9.81,13.68,16.64,18.59s15.09,6.8,23.27,8.06,16.96,2.03,24.86,5.28c4.31,1.77,8.3,4.15,12.77,5.57s8.86,2.29,13.26,3.55c15.98,4.58,31.09,12.05,44.52,21.84,6.7,4.88,12.97,10.37,18.71,16.35,2.9,3.02,5.76,6.15,8.29,9.49,1.38,1.82,2.64,3.8,3.32,5.99.73,2.35.85,4.81.84,7.25-.04,10.03-.01,19.97.97,29.98.49,4.98,1.14,9.95,1.95,14.89s1.8,9.64,1.83,14.55c.02,4.25-.41,10.16-4.7,12.31-3.99,2-8.83,2.87-13.21,3.5-9.37,1.34-18.91.75-28.3.06s-19.03-1.32-28.09-4.41c-7.53-2.57-14.49-6.61-20.8-11.43-12.89-9.85-23.14-22.75-32.95-35.53-10.89-14.19-22.06-28.9-27.45-46.21-1.46-4.69-2.47-9.5-3.58-14.28s-2.4-9.47-3.94-14.11c-3.02-9.07-6.85-17.85-10.91-26.5-2-4.25-4.05-8.48-6.11-12.7-.63-1.3-2.58-.16-1.94,1.14,4.35,8.92,8.7,17.84,12.46,27.03s6.62,18.47,8.82,28.1c1.11,4.85,2.22,9.71,3.86,14.42,1.46,4.21,3.26,8.31,5.3,12.27,4.22,8.21,9.46,15.84,14.94,23.25,9.97,13.46,20.21,27.13,32.57,38.52,5.87,5.41,12.3,10.29,19.38,14,7.83,4.1,16.18,6.42,24.93,7.5,4.86.6,9.76.93,14.65,1.28s9.65.63,14.48.64,9.48-.26,14.17-1c4.34-.68,9.11-1.61,13.03-3.68s5.09-6.75,5.5-10.9c.48-4.9-.31-9.82-1.13-14.64-1.74-10.2-2.97-20.45-3.39-30.8-.21-5.05-.23-10.1-.12-15.15.1-4.74-.09-9.37-2.51-13.59-2.14-3.73-5.21-7.02-8.1-10.18s-5.74-6.03-8.81-8.84c-12.36-11.36-26.67-20.52-42.15-27.02-8.04-3.38-16.29-5.7-24.72-7.88-2.42-.63-4.83-1.32-7.16-2.23s-4.38-2.02-6.55-3.06c-3.95-1.9-8.04-3.27-12.32-4.21-8.37-1.83-16.99-2.26-25.29-4.42-4.15-1.08-8.17-2.62-11.8-4.95s-6.8-5.4-9.64-8.68-5.26-6.68-7.72-10.13c-.83-1.17-2.79-.05-1.94,1.14h0Z"/>
          <path class="cls-1" d="M1307.88,312.74c7.29,10.16,17.29,18.28,28.76,23.29,6.16,2.69,12.56,4.29,19.19,5.34,7.26,1.15,14.36,2.39,21.28,4.94,13.19,4.87,25,12.83,36.41,20.92,10.47,7.43,21.33,15.51,25.18,28.36,1.19,3.97,1.93,8.06,3.12,12.03s2.73,7.92,4.38,11.77c3.42,7.99,7.22,15.83,10.87,23.71.61,1.31,2.55.17,1.94-1.14-3.25-7.03-6.58-14.03-9.73-21.11-1.56-3.51-3.03-7.05-4.28-10.69s-2.08-7.13-2.96-10.75c-.83-3.43-1.78-6.83-3.29-10.02-1.33-2.81-3.07-5.4-5.03-7.8-4.02-4.93-9.01-8.97-14.1-12.73-11.09-8.19-22.63-16.24-35.22-21.96-6.21-2.82-12.69-5.04-19.4-6.31-7.12-1.35-14.33-2.01-21.25-4.25-13.54-4.38-25.62-13.16-33.92-24.73-.84-1.17-2.79-.04-1.94,1.14h0Z"/>
          <path class="cls-1" d="M1157.3,213.31c-13.37-12.65-27.33-24.66-41.83-35.99s-29.45-21.91-44.9-31.8c-7.72-4.94-15.56-9.69-23.5-14.26s-16.31-9.4-24.83-13.32-18.36-6.27-27.9-8.26-19.63-4.16-29.47-6.13c-9.26-1.86-18.54-2.95-27.99-2.26s-18.27,2.73-26.82,6.17c-2.03.82-4.03,1.71-6,2.66-1.3.63-.16,2.57,1.14,1.94,16.74-8.15,35.59-10.5,53.89-7.33,9.68,1.68,19.29,3.91,28.91,5.91s19.03,3.71,28.08,7.13,17.03,8.18,25.18,12.77,15.61,9.02,23.25,13.8c15.35,9.6,30.25,19.92,44.63,30.9s28.33,22.73,41.66,35.05c1.64,1.52,3.27,3.05,4.9,4.58,1.05.99,2.65-.59,1.59-1.59h0Z"/>
          <path class="cls-1" d="M1255.1,260.28c-22.23-6.55-45.53-1.74-68.23-3.7-5.67-.49-11.31-1.45-16.77-3.1s-10.55-3.91-15.52-6.54c-10.07-5.32-19.4-11.94-29.05-17.96-21.22-13.24-43.21-25.24-64.94-37.61s-43.96-25.01-65.94-37.51-42.14-24.93-64.65-34.38c-11.15-4.68-22.69-8.37-34.4-11.36-5.82-1.49-11.69-2.81-17.58-4s-11.57-2.34-17.42-3-11.63-.72-17.28.67c-4.76,1.16-9.22,3.39-13.15,6.31-8.14,6.04-14.01,14.49-18.86,23.26-5.49,9.93-10.02,20.47-16.87,29.59-6.4,8.53-14.51,15.69-20.27,24.73-6.12,9.61-8.41,20.86-10.41,31.91-2.22,12.23-4.07,24.53-5.57,36.87-3.01,24.72-4.57,49.62-4.67,74.52-.02,6.04.04,12.08.19,18.13.03,1.45,2.29,1.45,2.25,0-.59-24.65.23-49.34,2.48-73.89,1.14-12.42,2.64-24.81,4.52-37.14.93-6.14,1.95-12.26,3.06-18.36,1.01-5.55,2.07-11.1,3.7-16.51s3.8-10.43,6.86-15.09,6.51-8.54,10.08-12.54,7.09-7.89,10.23-12.16c3.3-4.5,6.07-9.35,8.68-14.27,9.26-17.46,19.07-40.15,41.06-43.73,5.82-.95,11.82-.44,17.61.45s11.61,2.07,17.37,3.3c11.75,2.51,23.39,5.57,34.74,9.5,22.82,7.91,43.68,20.09,64.59,31.99s43.67,24.84,65.51,37.27,43.32,24.35,64.71,36.98c10.13,5.99,19.96,12.41,29.9,18.7,9.32,5.89,19.05,11.42,29.73,14.43,21.98,6.19,44.99,1.46,67.39,3.43,5.53.49,11.01,1.43,16.33,3,1.39.41,1.99-1.76.6-2.17h0Z"/>
          <path class="cls-1" d="M1285.78,280.57c6.66,14.7,19.4,25.54,26.18,40.19,3.54,7.65,5.79,15.8,8.54,23.74s6.16,15.54,11.08,22.43c8.71,12.19,19.4,22.92,31.36,31.91s25.1,16.13,39.05,21.33,28.65,8.36,43.5,9.22c1.88.11,3.76.18,5.64.22,1.45.03,1.45-2.22,0-2.25-14.76-.29-29.41-2.89-43.41-7.55s-27.31-11.37-39.4-19.83-23.09-18.83-32.13-30.59c-2.54-3.3-4.96-6.7-7-10.33s-3.68-7.42-5.13-11.3c-2.89-7.71-5.05-15.67-8.1-23.32s-6.99-14.13-11.78-20.53-9.86-12.44-13.81-19.32c-.97-1.68-1.85-3.4-2.65-5.17-.6-1.32-2.54-.17-1.94,1.14h0Z"/>
          <path class="cls-1" d="M1267.7,281.56c5.21,17.74-2.43,36.27-12.55,50.74-10.81,15.45-24.86,28.43-34.61,44.67-9.18,15.29-14.61,32.76-15.96,50.53-1.28,16.8,1.47,33.46,7.05,49.31,5.24,14.87,12.57,28.88,20.16,42.66s15.68,27.62,22.35,42.03c6.45,13.95,11.61,28.73,13.16,44.11.92,9.15.43,18.32-.92,27.41-1.49,10-3.85,19.84-5.76,29.75-3.93,20.31-5.32,40.96-6.29,61.59s-1.85,41.95-2.77,62.93c-.23,5.13-.45,10.26-.68,15.39-.06,1.45,2.19,1.44,2.25,0,.92-21.02,1.85-42.05,2.77-63.07.91-20.8,1.64-41.68,4.55-62.32s9.29-39.97,9.59-60.44c.23-15.5-3.43-30.74-9.07-45.11s-13.35-28.48-20.99-42.2-15.63-27.76-21.9-42.4-10.97-30.96-11.51-47.39c-.59-17.98,3.18-36.1,10.92-52.34,3.99-8.36,9.09-16.07,14.82-23.32s12.24-14.46,18.16-21.86c11.1-13.88,21.11-30.29,21.18-48.65.02-4.27-.57-8.53-1.78-12.62-.41-1.39-2.58-.8-2.17.6h0Z"/>
          <path class="cls-1" d="M1282.5,289.22c1.45,0,1.45-2.25,0-2.25s-1.45,2.25,0,2.25h0Z"/>
          <path class="cls-1" d="M1281.21,284.55c-.47,17.48-4.64,34.57-9.82,51.19s-11.59,33.36-16.63,50.29c-4.85,16.31-8.51,33.21-8.23,50.31.15,8.85,1.4,17.64,3.69,26.19s5.66,17.17,9.37,25.41c7.57,16.8,16.85,32.8,23.72,49.92s11.37,36.33,13.25,55.22,1.45,38.21-.67,57.18-6.03,38.29-11.09,56.98c-4.65,17.19-10.22,34.22-17.64,50.43-7.31,15.96-16.46,31.21-28.23,44.3-2.83,3.15-5.81,6.16-8.91,9.03-1.07.99.53,2.57,1.59,1.59,12.91-11.93,23.29-26.33,31.56-41.79,8.34-15.59,14.64-32.21,19.81-49.09,5.59-18.24,10.05-36.87,13.03-55.72,3-18.95,4.51-38.17,3.84-57.36s-3.49-38.03-9.06-56.25-14.02-34.36-22.31-51.02-15.97-33.4-18.66-51.71c-2.51-17.09-.31-34.44,3.83-51.09,4.26-17.14,10.44-33.72,16.07-50.45s10.68-33.42,12.79-50.83c.51-4.23.83-8.48.95-12.74.04-1.45-2.21-1.45-2.25,0h0Z"/>
          <path class="cls-1" d="M1230.84,809.23c-8.06,13.64-17.69,26.32-28.69,37.72-5.46,5.66-11.24,11-17.31,15.99-3.07,2.52-6.22,4.95-9.44,7.29-1.45,1.05-3.03,2.05-4.19,3.44-1.23,1.48-1.75,3.24-2.01,5.12-1.47,10.24-2.47,20.57-3.7,30.85-.17,1.43,2.08,1.42,2.25,0,1.09-9.09,2.17-18.18,3.26-27.28.24-2.01.26-4.33,1.2-6.17.88-1.73,2.63-2.8,4.15-3.9,3.15-2.28,6.23-4.64,9.25-7.1,12.03-9.78,22.94-20.95,32.46-33.2,5.36-6.9,10.27-14.12,14.71-21.64.74-1.25-1.21-2.38-1.94-1.14h0Z"/>
          <path class="cls-1" d="M1251.01,803.52c-4.49,16.87-12.62,32.73-23.67,46.24-5.48,6.7-11.65,12.83-18.41,18.23s-14.21,10.1-21.28,15.19c-7.81,5.62-15.26,11.83-20.82,19.76-.83,1.19,1.12,2.31,1.94,1.14,10.13-14.44,26.38-22.6,40.03-33.14s25.25-24.21,33.53-39.52c4.67-8.63,8.33-17.81,10.86-27.3.37-1.4-1.8-2-2.17-.6h0Z"/>
          <path class="cls-1" d="M902.37,109.47c-14.91,10.41-29.48,21.36-43.08,33.45s-25.86,24.96-36.51,39.42-18.74,29.06-24.68,45.25c-2.97,8.11-5.28,16.46-6.78,24.97s-2.05,16.42-2.64,24.67c-1.15,16.12-2.12,33.26-10.48,47.55s-23.42,22.64-38.53,28.39c-17.16,6.53-34.96,10.67-52.81,14.79-16.68,3.85-33.7,8.31-48.17,17.84-12.72,8.38-22.35,20.32-31.39,32.38s-17.78,24.73-29.26,34.72c-2.78,2.42-5.72,4.65-8.81,6.65-1.21.78-.08,2.73,1.14,1.94,12.7-8.23,22.32-20.03,31.31-32.01s17.8-24.79,29.23-34.89c12.79-11.3,28.67-17.37,44.97-21.64,8.44-2.21,16.98-4.01,25.47-6,9.3-2.18,18.52-4.7,27.61-7.66,15.42-5.02,31.47-11.14,43.11-22.89,5.64-5.69,9.79-12.58,12.54-20.09s4.14-15.64,5.02-23.66,1.29-16.51,2.01-24.77,1.99-16.94,4.12-25.23c4.32-16.84,11.66-32.79,20.94-47.46s21.06-28.62,33.77-41.02,27.38-24.27,42.15-35.03c3.6-2.62,7.22-5.2,10.87-7.74,1.18-.82.06-2.77-1.14-1.94h0Z"/>
          <path class="cls-1" d="M754.84,347.55c.22,13.27-11.17,22.21-20.96,29.15-11.34,8.05-23.03,15.51-35.06,22.49-24.37,14.14-49.11,27.67-73.68,41.47-6.42,3.61-12.86,7.72-20.06,9.61-6.13,1.61-13.29,1.3-18.38-2.88-1.11-.91-2.71.67-1.59,1.59,4.48,3.68,10.36,4.91,16.05,4.3,6.53-.71,12.5-3.65,18.18-6.79,12.87-7.11,25.64-14.38,38.46-21.58,25.24-14.16,50.9-27.76,74.61-44.43,11.21-7.88,24.93-17.59,24.67-32.93-.02-1.45-2.27-1.45-2.25,0h0Z"/>
          <path class="cls-1" d="M291.69,429.5c4.89-7.6,3.96-16.95,4.29-25.56.39-10.01,3.97-19.12,8.21-28.07,8.5-17.93,18.85-35.03,24.91-54.03,5.6-17.55,8.24-35.94,14.46-53.31,3.05-8.53,7.01-17,12.62-24.17,2.77-3.53,6.02-6.75,9.88-9.06,4.28-2.57,9.11-3.93,13.95-5.02,9.12-2.05,18.51-3.4,26.52-8.56,1.81-1.17,3.63-2.5,5.69-3.19,2.26-.75,4.45-.42,6.48.8s3.56,2.88,5.11,4.54,2.92,3.25,4.3,4.94c11.32,13.92,18.69,30.85,22.15,48.39,1.83,9.28,2.99,19.2,1.78,28.64-1.27,9.91-6.47,18.53-12.01,26.62-2.84,4.15-5.87,8.16-9.07,12.03s-6.49,7.2-9.63,10.9c-1.51,1.78-2.94,3.64-4.12,5.66s-2.09,4.33-2.91,6.58-1.66,4.59-2.82,6.76-2.56,4.22-4.06,6.18c-5.62,7.28-12.34,13.83-19.41,19.69s-14.82,11.07-22.95,15.45c-8.58,4.61-17.71,7.93-26.61,11.84-4.46,1.96-8.78,4.16-12.96,6.65-3.9,2.33-7.76,4.77-11.93,6.6s-8.39,2.83-12.77,2.19c-1.42-.21-2.03,1.96-.6,2.17,9.3,1.36,17.52-3.66,25.17-8.25,4.27-2.56,8.62-4.91,13.17-6.94s9.61-4.01,14.41-6.04c17.39-7.33,33.27-17.74,46.6-31.16,3.37-3.39,6.62-6.94,9.55-10.72s5.3-8.09,6.99-12.75c.86-2.36,1.7-4.73,2.96-6.92s2.8-4.16,4.45-6.05c3.29-3.79,6.76-7.41,9.94-11.3,6.24-7.65,12.31-15.9,16.58-24.83,2.14-4.49,3.63-9.18,4.27-14.12s.53-10.37.1-15.54c-1.49-18.18-6.97-36.12-16.48-51.73-2.32-3.81-4.89-7.46-7.67-10.94s-5.75-7.18-9.37-9.8c-1.77-1.28-3.85-2.18-6.06-2.21s-4.13.76-5.95,1.77c-2.04,1.13-3.91,2.55-5.96,3.67s-4.37,2.07-6.67,2.83c-9.31,3.07-19.4,3.51-28.35,7.69-8.41,3.92-14.33,11.45-18.85,19.32-9.41,16.39-13,35.2-17.46,53.34-2.3,9.37-4.91,18.65-8.54,27.6-3.9,9.6-8.7,18.8-13.44,28s-9.48,18.01-12.76,27.57c-1.61,4.68-2.67,9.5-2.99,14.45-.29,4.6-.09,9.22-.43,13.81s-1.24,8.71-3.65,12.46c-.79,1.22,1.16,2.35,1.94,1.14h0Z"/>
          <path class="cls-1" d="M428.01,228.27c-14,6.44-26.49,16.26-35.65,28.69-4.57,6.2-8.24,13.08-10.73,20.37-2.99,8.76-3.99,18-4.86,27.17s-1.75,18.32-4.24,27.22c-2.22,7.98-5.46,15.65-9.59,22.83s-9.13,13.84-14.91,19.77c-6.34,6.51-13.65,11.86-21.06,17.06-13.8,9.68-28.68,20.01-35.24,36.24-.74,1.84-1.34,3.73-1.81,5.65-.34,1.41,1.83,2.01,2.17.6,4.13-16.91,18.56-28.25,32.1-37.79,7.43-5.24,15-10.35,21.7-16.53,5.98-5.51,11.26-11.78,15.74-18.57s8.14-14.12,10.89-21.78c2.92-8.13,4.59-16.54,5.56-25.11,1.08-9.54,1.5-19.19,3.61-28.59,1.73-7.73,4.73-15.08,8.87-21.83,8.05-13.14,19.98-23.74,33.53-30.96,1.66-.89,3.36-1.72,5.07-2.51,1.31-.6.17-2.54-1.14-1.94h0Z"/>
          <path class="cls-1" d="M434.85,238.28c-.69,16.67-.32,33.61-3.98,49.99-1.83,8.16-4.8,15.79-8.96,23.04s-9.28,14.83-14.29,22-10.02,14.15-14.66,21.47c-2.22,3.51-4.12,7.28-6.54,10.65s-5.46,6.38-8.58,9.17c-5.44,4.85-11.29,8.82-17.88,11.94s-13.12,5.32-19.83,7.56c-13.16,4.4-26.84,8.64-37.84,17.43-1.35,1.08-2.65,2.23-3.89,3.44-1.04,1.01.55,2.6,1.59,1.59,10.29-9.99,24.1-14.75,37.43-19.19s27.18-8.85,38.22-17.91c3.22-2.65,6.37-5.45,9.18-8.53s4.99-6.57,7.14-10.2c4.39-7.4,9.32-14.46,14.26-21.5s10.14-14.41,14.75-21.92,8.3-14.71,10.67-22.93c4.67-16.17,4.73-33.22,5.25-49.91.06-2.07.14-4.13.22-6.2.06-1.45-2.19-1.45-2.25,0h0Z"/>
          <path class="cls-1" d="M274.47,451.15c-7.89-.12-13.75,5.78-19.67,10.15-7.26,5.37-15.85,8.41-24.22,11.56-8.8,3.31-17.81,6.52-27.19,7.71-4.82.61-9.63.46-14.47.44-4.57-.02-9.08.35-13.54,1.43-8.56,2.07-16.48,6.17-24.03,10.59-8.27,4.84-16.4,9.93-24.59,14.92s-17.05,10.38-25.58,15.57c-3.78,2.3-7.75,4.44-11.28,7.11-3.1,2.35-5.61,5.31-6.47,9.19-1.75,7.96,1.27,16.7,5.23,23.52,4.31,7.42,10.32,13.6,16.55,19.42,6.6,6.17,13.39,12.11,19.05,19.19s10.27,14.03,17.58,18.82c3.36,2.2,7.14,3.74,11.14,4.19,4.67.53,9.37-.48,13.88-1.59,8.51-2.1,17.12-4.23,25.05-8.04s14.35-9.5,20.19-15.92c6.38-7.01,12.38-14.39,18.53-21.62,6.45-7.58,12.9-15.17,19.35-22.75,6.07-7.13,12.11-14.29,17.14-22.21,9.84-15.47,16.47-32.74,23.5-49.6,1.86-4.46,3.72-8.92,5.58-13.38.56-1.33-1.62-1.92-2.17-.6-3.68,8.83-7.35,17.66-11.05,26.48-3.41,8.12-6.92,16.2-10.98,24.02s-8.9,15.6-14.47,22.67-12.09,14.47-18.19,21.64-12.58,14.79-18.86,22.18c-5.62,6.61-11.09,13.48-17.66,19.19s-14.19,9.35-22.42,11.93c-4.07,1.28-8.21,2.33-12.34,3.37-4.47,1.12-9.03,2.31-13.68,2.08-8.51-.43-15.37-6.31-20.65-12.5-2.85-3.34-5.42-6.91-8.18-10.32s-5.83-6.68-9.03-9.77c-11.77-11.37-26.49-22.28-30.46-39.09-.93-3.94-1.43-8.54,0-12.42,1.36-3.67,4.63-6.11,7.82-8.13,8.04-5.1,16.27-9.92,24.4-14.87s16.48-10.04,24.73-15.05c7.51-4.58,15.01-9.32,23.13-12.77,3.92-1.66,7.99-3,12.17-3.81,4.64-.9,9.32-.86,14.03-.8s9.1-.12,13.63-.85,8.86-1.86,13.18-3.21c8.42-2.63,16.83-5.76,24.9-9.31,3.98-1.75,7.86-3.78,11.39-6.34,3.04-2.21,5.87-4.7,9.02-6.76s6.31-3.48,9.98-3.42c1.45.02,1.45-2.23,0-2.25h0Z"/>
          <path class="cls-1" d="M281.05,459.52c-1.82,7.31-3.71,14.69-7.97,21.01-4.03,5.98-9.42,11.18-14.89,15.85-10.57,9.03-22.73,16.04-35.33,21.81-13.43,6.15-27.47,10.5-41.32,15.56s-26.67,11.12-36.35,21.78c-4.95,5.45-8.36,11.86-11.08,18.65-2.86,7.13-5.62,14.51-7.1,22.06-.36,1.85-.63,3.72-.81,5.6-.14,1.44,2.11,1.43,2.25,0,.74-7.8,3.41-15.26,6.11-22.57s5.58-14.09,10.37-19.99c9.15-11.28,22.54-17.89,35.89-22.87,7.2-2.69,14.54-5.01,21.77-7.61,6.52-2.35,12.98-4.89,19.31-7.72,12.61-5.62,24.75-12.43,35.5-21.13,6.09-4.93,11.94-10.47,16.58-16.8,5.01-6.84,7.22-14.92,9.23-23.03.35-1.41-1.82-2-2.17-.6h0Z"/>
          <path class="cls-1" d="M277.94,505.29c-13.74,18.3-36.11,26.91-52.39,42.47-8.42,8.06-14.46,18.71-24.16,25.41-5.35,3.7-11.63,5.46-17.51,8.1s-10.66,6.34-15.44,10.33c-9.98,8.31-22.83,19.68-36.9,14.49-1.36-.5-1.95,1.67-.6,2.17,12.16,4.49,24.4-2.97,33.53-10.43,4.96-4.05,9.7-8.42,15.18-11.79s12.2-5.21,18.17-8.16c11.07-5.47,17.68-16.1,25.79-24.91s17.68-15.05,27.28-21.55c10.6-7.18,21.22-14.64,28.99-24.99.87-1.16-1.08-2.28-1.94-1.14h0Z"/>
          <path class="cls-1" d="M586.96,444.61c-8.53-1.66-16.14-5.99-24.27-8.86s-16.88-4.33-25.56-4.8c-17.98-.97-35.79,2.25-53.45,5.22-9.25,1.56-18.51,3.05-27.86,3.82s-18.73.73-28.08.07c-18.7-1.32-37.03-5.5-55.68-7.25-9.21-.86-18.51-1.09-27.71.03s-17.71,3.38-26.25,6.24c-2.1.7-4.18,1.44-6.26,2.19-1.35.49-.77,2.67.6,2.17,8.45-3.07,17.05-5.78,25.9-7.42s18.27-1.98,27.45-1.45c18.5,1.08,36.63,5.28,55.05,7.13,9.35.94,18.76,1.35,28.15.96s18.3-1.59,27.37-3.03c17.87-2.83,35.71-6.59,53.88-6.61,8.74-.01,17.5.83,25.95,3.08s15.93,6.36,24.1,9.07c1.99.66,4.01,1.2,6.06,1.6,1.41.28,2.02-1.89.6-2.17h0Z"/>
          <path class="cls-1" d="M570.15,459.38c-15.46,7.65-32.5,11.3-49.48,13.69s-35.89,4.37-53.89,4.04c-9.04-.17-18.08-.95-26.97-2.64s-17.53-4.5-26.1-7.48-17.07-5.82-25.81-8.12-17.47-4.12-26.34-5.51c-17.75-2.79-35.78-3.81-53.73-2.99-2.2.1-4.4.23-6.6.39-1.44.1-1.45,2.35,0,2.25,18.12-1.27,36.36-.71,54.36,1.73s35.62,6.84,52.78,12.77c8.65,2.99,17.28,6.12,26.22,8.16s17.76,3.09,26.75,3.51c18.12.85,36.29-.89,54.25-3.18,16.95-2.16,33.96-5.24,49.77-11.95,2-.85,3.98-1.76,5.93-2.73,1.3-.64.16-2.58-1.14-1.94h0Z"/>
          <path class="cls-1" d="M279.31,502.95c-6.71,18.69-13.42,37.37-20.55,55.9s-14.65,36.82-23.01,54.78-17.43,35.36-27.7,52.17c-9.45,15.47-19.97,30.22-30.58,44.91s-20.86,28.75-30.41,43.72-17.81,29.94-24.16,46.15c-6.72,17.16-10.74,35.22-11.63,53.64-.94,19.36,1.41,38.77,5.81,57.61s11.19,38.16,18.9,56.46,16.52,36.08,25.55,53.75,17.73,34.5,25.92,52.08,15.58,35.33,21.3,53.76,9.59,36.91,10.74,55.93c1.03,16.95-.23,33.97-3.72,50.59s-8.67,31.51-15.57,46.29-15.52,29.16-25.24,42.5-20.97,26.19-32.97,37.88-25.04,22.56-38.76,32.33-29.15,18.8-43.87,27.96-29.36,18.85-42.19,30.64c-6.18,5.68-11.88,11.85-16.95,18.54-.87,1.15,1.08,2.28,1.94,1.14,10.59-13.98,24.11-25.37,38.42-35.36s29.69-18.86,44.58-28.22c14.31-8.99,28.07-18.75,41-29.65s24.83-22.59,35.78-35.29,20.73-26.12,29.19-40.47,15.26-28.96,20.46-44.45,8.6-31.55,9.9-47.83c1.45-18.1.14-36.32-3.26-54.14-3.59-18.81-9.47-37.11-16.53-54.89s-15.51-35.55-24.2-52.88-17.86-34.65-26.34-52.19-16.79-36.44-23.3-55.4-11.34-37.96-13.44-57.62-1.34-38.94,3.07-57.89c3.95-16.99,10.68-33.19,18.93-48.52s18.16-30.2,28.32-44.58,21-28.91,31.11-43.64c10.84-15.79,20.74-32.16,29.63-49.13s17.27-35.34,24.83-53.5,14.59-36.77,21.38-55.35c3.3-9.03,6.55-18.08,9.8-27.13.49-1.37-1.68-1.95-2.17-.6h0Z"/>
          <path class="cls-1" d="M198.04,611.13c-2.4,6.19-5.88,11.88-9.56,17.39s-7.46,10.91-11.23,16.34c-7.73,11.13-15.55,22.19-23.31,33.3-15.43,22.06-30.66,44.28-44.59,67.32-3.54,5.85-6.99,11.76-10.34,17.72-2.14,3.81-4.37,7.6-6.17,11.59-2.73,6.04-4.86,12.35-6.95,18.64-5.52,16.63-10.4,33.47-16.16,50.03-2.74,7.86-5.63,15.69-9.11,23.26-2.58,5.63-5.44,11.47-9.56,16.16-.74.84-1.53,1.64-2.39,2.37-1.11.94.49,2.52,1.59,1.59,4.33-3.67,7.3-8.95,9.86-13.93,3.64-7.07,6.58-14.51,9.32-21.97,6.16-16.74,11.18-33.87,16.64-50.85,2.21-6.88,4.46-13.78,7.15-20.49,3.45-8.6,8.39-16.58,13.05-24.55,13.67-23.38,28.8-45.85,44.25-68.07,7.78-11.19,15.64-22.32,23.45-33.49,3.88-5.55,7.75-11.11,11.58-16.69s7.57-10.87,10.74-16.68c1.48-2.71,2.79-5.49,3.9-8.37.52-1.35-1.65-1.94-2.17-.6h0Z"/>
          <path class="cls-1" d="M70.57,858.38c1.5,19.39,5.3,38.52,10.57,57.22s12.07,37.3,19.37,55.48,15.23,36.78,23.18,55.02c4.09,9.38,8.31,18.69,12.8,27.89s8.88,17.79,13.24,26.72c8.69,17.8,16.44,35.95,21.56,55.13s7.82,38.39,8.26,57.95-1.24,37.31-5.29,55.49-9.97,34.41-18.63,50.05-20.19,29.76-33.51,41.93-28.45,22.78-43.69,32.73c-3.75,2.45-7.51,4.86-11.29,7.26-1.22.78-.09,2.72,1.14,1.94,15.42-9.83,30.76-19.85,44.98-31.37s26.91-24.38,37.05-39.46,17.34-31.23,22.43-48.28,8.03-35.46,8.87-53.58c.9-19.58-.57-39.27-4.29-58.52s-9.96-38.12-17.99-56.15-17.81-36.04-26.25-54.29-16.42-37.32-24.25-56.13-14.84-36.53-20.9-55.29-10.89-37.8-13.54-57.27c-.65-4.81-1.16-9.64-1.54-14.48-.11-1.43-2.36-1.45-2.25,0h0Z"/>
        </g>
      </g>
    </g>
  </g>
</svg>