<?xml version="1.0" encoding="UTF-8"?>
<svg id="_レイヤー_2" data-name="レイヤー 2" xmlns="http://www.w3.org/2000/svg" viewBox="0 0 224.03 209.11">
  <defs>
    <style>
      .cls-1 {
        fill: #d6cfc4;
        stroke: #9b0015;
        stroke-miterlimit: 10;
        stroke-width: .78px;
      }
    </style>
  </defs>
  <g id="_ポートフォリオ" data-name="ポートフォリオ">
    <g>
      <path class="cls-1" d="M159.92,27.23c-2.1,2.04-4.02,3.87-5.89,5.74-11.13,11.1-21.01,23.22-29.31,36.59-.66,1.07-1.36,1.62-2.71,1.67-10.13.41-17.9,4.99-23.28,13.56-2.02,3.22-3.88,6.54-5.71,9.88-1.25,2.29-2.79,3.19-5.59,2.73-4.12-.67-7.71.91-10.22,4.31-2.56,3.47-3.08,7.29-1.14,11.26,2.94,5.99,7.55,10.52,13.16,13.89,12.46,7.47,25.88,9.88,39.73,4.99,13.91-4.92,22.28-14.91,23.82-29.96.13-1.23.58-1.9,1.55-2.51,13.39-8.28,25.49-18.17,36.62-29.27.54-.54,1.15-1.03,2.02-1.8.82,1.95,1.61,3.6,2.23,5.31,4.34,11.94,6.45,24.26,6.08,36.96-.14,4.89-1.01,9.67-3.07,14.17-3.41,7.48-9.23,12.38-16.67,15.54-6.84,2.91-14.06,4.18-21.42,4.68-5.29.36-10.61.28-15.9.66-3.33.24-6.71.66-9.93,1.51-10.99,2.87-15.29,11.32-13.94,22.06.39,3.08,1.75,6.1,3.01,9,1.98,4.54,3.27,9.13,2.67,14.14-.57,4.79-2.98,8.44-6.75,11.27-4.72,3.55-10.21,4.94-15.94,5.09-20.09.54-38.72-4.5-55.74-15.21-19.23-12.09-32.84-28.86-40.92-50.05-3.23-8.47-5.1-17.26-5.88-26.32-.93-10.77-.29-21.41,2.25-31.89,5.86-24.16,18.86-43.63,38.94-58.33,12.8-9.37,27.06-15.37,42.71-17.78,26.33-4.05,50.65,1.3,72.79,16.21.78.53,1.49,1.17,2.44,1.92ZM104.51,26.57c-10.21.07-18.57,8.58-18.44,18.78.13,10.07,8.63,18.36,18.71,18.23,10.13-.13,18.38-8.54,18.3-18.64-.08-10.11-8.51-18.44-18.57-18.37ZM74.74,71.01c-.06-10.11-8.46-18.46-18.52-18.42-10.21.04-18.59,8.53-18.48,18.73.1,10.07,8.58,18.38,18.66,18.27,10.12-.11,18.41-8.5,18.35-18.59ZM26.58,123.04c-.07,10.09,8.26,18.55,18.32,18.63,10.19.08,18.67-8.33,18.69-18.53.03-10.06-8.37-18.46-18.46-18.48-10.09-.02-18.49,8.31-18.55,18.39ZM60.04,163.9c-.09,10.08,8.21,18.57,18.27,18.68,10.19.11,18.68-8.27,18.74-18.49.06-10.05-8.32-18.49-18.41-18.53-10.08-.05-18.51,8.26-18.6,18.34Z"/>
      <path class="cls-1" d="M164.28,83.74c-4.93-11.12-12.81-19.03-23.93-23.96.44-.7.75-1.29,1.16-1.8,10.51-13.19,22.11-25.34,35.11-36.1,8.12-6.72,16.51-13.08,25.96-17.89,3.89-1.98,7.92-3.58,12.36-3.59,5.28-.01,8.67,3.37,8.69,8.61.02,4.27-1.5,8.14-3.31,11.91-2.96,6.18-6.88,11.76-10.93,17.24-12.53,17-27.45,31.66-43.91,44.82-.27.21-.58.37-1.21.77Z"/>
      <path class="cls-1" d="M114.99,126.98c-9.28-.15-18.16-2.44-25.51-8.86-2.43-2.12-4.38-4.82-6.42-7.35-1.07-1.33-1.22-2.93-.26-4.47.96-1.54,2.45-1.92,4.15-1.75.62.06,1.23.12,1.85.17,3.88.31,6.95-1.18,9.09-4.37,1.47-2.2,2.71-4.56,4.05-6.85,1.08-1.83,2.07-3.71,3.26-5.46,5.27-7.76,13.17-10.94,22.36-9.09,8.88,1.79,15.68,8.48,17.47,17.21,1.71,8.34-.94,15.4-6.61,21.4-6.24,6.61-14.14,9.45-23.43,9.44Z"/>
      <path class="cls-1" d="M131.43,72.34c.81-1.33,1.38-2.32,2-3.26.72-1.09,1.5-2.14,2.21-3.14,9.73,2.77,19.57,12.52,22.49,22.5-2.01,1.32-4.1,2.69-6.42,4.22-1.76-5.03-4.11-9.2-7.61-12.7-3.5-3.5-7.67-5.87-12.67-7.62Z"/>
    </g>
  </g>
</svg>