<?xml version="1.0" encoding="UTF-8"?>
<svg id="_レイヤー_2" data-name="レイヤー 2" xmlns="http://www.w3.org/2000/svg" viewBox="0 0 438.35 652.49">
  <defs>
    <style>
      .cls-1 {
        fill: #fff6e8;
        stroke: #fff6e8;
        stroke-width: 1.05px;
      }

      .cls-1, .cls-2 {
        stroke-miterlimit: 10;
      }

      .cls-2 {
        fill: #9b0015;
        stroke: #9b0015;
      }
    </style>
  </defs>
  <g id="_ポートフォリオ" data-name="ポートフォリオ">
    <g>
      <rect class="cls-1" x=".52" y=".52" width="437.3" height="651.45"/>
      <path class="cls-2" d="M322.55,596.04H116.87l-66.02-66.02V125.14l.14-.14L116.87,59.12h205.68l66.02,66.02v404.88l-.14.14-65.87,65.87ZM117.27,595.06h204.87l65.44-65.44V125.54l-65.44-65.44H117.27L51.83,125.54v404.07l65.44,65.44Z"/>
      <path class="cls-2" d="M316.04,580.3H123.38l-56.8-56.8V131.65l.14-.14,56.66-56.66h192.65l56.8,56.8v391.85l-.14.14-56.66,56.66ZM123.79,579.32h191.84l56.23-56.23V132.06l-56.23-56.23H123.79l-56.23,56.23v391.04l56.23,56.23Z"/>
    </g>
  </g>
</svg>