<?xml version="1.0" encoding="UTF-8"?>
<svg id="_レイヤー_2" data-name="レイヤー 2" xmlns="http://www.w3.org/2000/svg" viewBox="0 0 200.81 178.48">
  <defs>
    <style>
      .cls-1 {
        fill: #d6cfc4;
        stroke: #9b0015;
        stroke-miterlimit: 10;
        stroke-width: .74px;
      }
    </style>
  </defs>
  <g id="_ポートフォリオ" data-name="ポートフォリオ">
    <g>
      <path class="cls-1" d="M97.11,36.07v2.22c0,16.49-.03,32.97.04,49.46,0,1.78-.53,2.68-2.13,3.51-4.26,2.21-6.53,6.78-5.95,11.28.58,4.5,3.81,8.24,8.06,9.36,5.65,1.48,11.45-1.49,13.42-6.89,2.02-5.53-.47-11.61-5.8-14.14-.48-.23-.96-.43-1.52-.69v-54.77c.57.85.95,1.34,1.24,1.87,5.7,10.42,11.39,20.85,17.08,31.28,4.88,8.95,9.73,17.91,14.66,26.84.88,1.59,1.08,3.05.56,4.81-3.24,10.86-6.41,21.75-9.6,32.63-.73,2.47-.74,2.47-3.24,2.47-16.26,0-32.51,0-48.77,0-3.05,0-2.58.06-3.38-2.6-3.25-10.78-6.47-21.57-9.79-32.33-.56-1.83-.47-3.35.49-5.02,7.19-12.49,14.31-25.02,21.45-37.53,3.76-6.59,7.53-13.17,11.3-19.76.41-.72.82-1.44,1.23-2.15.21.05.42.1.63.16Z"/>
      <path class="cls-1" d="M172.75,16.65h-38.08c14.62,6.51,26.93,15.97,36.54,28.82,9.63,12.87,15.26,27.32,17.09,43.49h-6.36c-3.09-22.98-13.37-41.81-31.81-55.87-10.98-8.38-23.4-13.49-37.44-15.46,0,1.59.04,2.95,0,4.31-.11,2.98-1.11,4-4.1,4.02-5.83.04-11.66.04-17.49,0-2.87-.02-3.86-1.05-3.96-3.89-.05-1.37,0-2.74,0-4.45-18.12,3.14-33.3,11.22-45.75,24.38-12.48,13.19-19.53,28.97-21.84,47.02h-6.63c.98-10.66,3.97-20.6,8.68-30.04,4.69-9.43,10.91-17.74,18.59-24.96,7.72-7.25,16.49-12.88,26.13-17.32H26.07c-.07.61-.19,1.19-.21,1.77-.04,1.46.05,2.92-.05,4.37-.15,1.97-1.1,2.88-3.04,3.1-.53.06-1.07.05-1.61.05-5.37,0-10.74,0-16.11,0-.46,0-.92,0-1.38-.04-2.16-.21-3.24-1.23-3.26-3.39-.06-6.21-.06-12.43,0-18.64C.43,1.7,1.64.45,3.86.43c6.21-.07,12.43-.08,18.64,0,2.22.03,3.25,1.24,3.33,3.58.07,1.9.01,3.81.01,5.89h61.05c0-1.85-.02-3.59,0-5.34.04-3.1,1.05-4.14,4.15-4.16,5.68-.03,11.35-.03,17.03,0,3.17.01,4.28,1.14,4.32,4.31.02,1.67,0,3.34,0,5.19h59.85c.08-.47.23-.97.24-1.47.04-1.07.01-2.15.01-3.22.01-3.92.92-4.81,4.93-4.82,3.07,0,6.14,0,9.2,0,2.45,0,4.91-.03,7.36,0,3.22.05,4.34,1.14,4.36,4.27.03,5.68.03,11.35,0,17.03-.02,3.27-.99,4.24-4.29,4.26-5.68.03-11.35.03-17.03,0-3.26-.02-4.25-1.05-4.29-4.29-.02-1.6,0-3.2,0-5.02Z"/>
      <path class="cls-1" d="M99.49,178.11c-11.58,0-23.15,0-34.73,0-2.53,0-2.69-.1-3.26-2.51-.19-.81-.25-1.67-.26-2.5-.02-7.44-.03-14.87,0-22.31.02-5.64,3.68-9.44,9.32-9.46,19.24-.05,38.48-.05,57.72,0,5.59.01,9.37,3.86,9.41,9.44.05,7.44.01,14.87,0,22.31,0,.69-.03,1.38-.15,2.06-.46,2.7-.8,2.97-3.57,2.97-11.5,0-23,0-34.5,0Z"/>
      <path class="cls-1" d="M15.72,125.05c-3.6,0-7.21.01-10.81,0-3.14-.02-4.25-1-4.27-4.05-.05-7.28-.05-14.57,0-21.85.02-2.91,1.19-3.99,4.12-4,7.13-.02,14.26-.02,21.39,0,3.31.01,4.37,1.11,4.38,4.44.01,7.05.01,14.11,0,21.16,0,3.29-.99,4.28-4.23,4.3-3.53.02-7.05,0-10.58,0Z"/>
      <path class="cls-1" d="M200.43,110.33c0,3.6.03,7.2,0,10.81-.03,2.86-1.04,3.89-3.89,3.9-7.28.03-14.56.03-21.84,0-2.86-.01-4.09-1.16-4.11-4.04-.06-7.28-.06-14.56,0-21.84.02-2.82,1.32-4.01,4.17-4.02,7.28-.03,14.56-.03,21.84,0,2.85.01,3.81,1.01,3.84,3.92.03,3.75,0,7.51,0,11.27Z"/>
      <path class="cls-1" d="M99.74,105.91c-2.92-.02-5.03-2.21-4.97-5.15.06-2.75,2.26-4.94,4.99-4.97,2.8-.03,5.17,2.3,5.16,5.07,0,2.76-2.38,5.07-5.18,5.05Z"/>
    </g>
  </g>
</svg>